# xmcd CD database file
#
# Track frame offsets:
#	150
#	12609
#	30377
#	47311
#	62687
#	80062
#	97776
#	114048
#	130496
#	146399
#
# Disc length: 2211 seconds
#
# Revision: 0
# Processed by: cddbd v1.5.1PL0 Copyright (c) Steve Scherf et al.
# Submitted via: Feurio! 1.68 - http://www.feurio.com
#
DISCID=7408a10a
DTITLE=Lowlife - The Black
DYEAR=1988
DGENRE=
TTITLE0=??? - Acrid Tongue
TTITLE1=??? - Bittersweet
TTITLE2=??? - Beggars Burning Bush
TTITLE3=??? - Forever Filthy
TTITLE4=??? - Missing the Kick
TTITLE5=??? - Movedto Tears
TTITLE6=??? - Neverending Shroud
TTITLE7=??? - Riverof Woe
TTITLE8=??? - Wethe Cheated
TTITLE9=??? - WhereI LayIll Lie
EXTD=
EXTT0=
EXTT1=
EXTT2=
EXTT3=
EXTT4=
EXTT5=
EXTT6=
EXTT7=
EXTT8=
EXTT9=
PLAYORDER=
